<svg xmlns="http://www.w3.org/2000/svg" xmlns:xlink="http://www.w3.org/1999/xlink" width="1969.598" height="237.474" viewBox="0 0 1969.598 237.474">
  <defs>
    <linearGradient id="linear-gradient" x1="0.116" y1="0.5" x2="1" y2="1" gradientUnits="objectBoundingBox">
      <stop offset="0" stop-color="#48a9fe"/>
      <stop offset="1" stop-color="#0beef9"/>
    </linearGradient>
  </defs>
  <path id="Path_3325" data-name="Path 3325" d="M86.172,4.008c44.422,0,72.478-22.378,72.478-57.114,0-39.412-34.4-49.432-65.13-56.78C73.146-115.23,65.8-116.9,65.8-124.582c0-5.344,7.348-10.02,17.7-10.02,15.7,0,34.4,7.348,49.432,17.034l20.708-37.074c-19.372-13.026-44.422-22.044-70.14-22.044-42.752,0-69.806,24.716-69.806,57.782.334,37.408,31.4,46.092,64.8,53.774,17.034,4.008,28.39,7.348,28.39,15.7,0,6.68-7.014,10.688-19.372,10.688-20.708,0-42.752-8.35-58.784-19.706L6.012-22.044C27.054-5.678,57.114,4.008,86.172,4.008Zm183.7-45.758c-18.37,0-32.064-11.69-37.408-29.058H355.71c0-65.8-32.064-105.878-86.84-105.878-52.1,0-90.18,37.408-90.18,89.846,0,53.106,39.412,90.848,92.852,90.848,25.718,0,55.444-11.022,70.808-26.72l-33.4-33.734C298.6-47.428,283.232-41.75,269.872-41.75Zm0-89.512c17.034,0,28.724,10.354,33.4,26.052h-70.14C239.144-121.242,252.838-131.262,269.872-131.262Zm171.676-9.352v-32.064H385.1V0h56.446V-78.49l.334.668c0-31.73,21.376-51.77,56.446-51.77v-47.094C473.278-176.686,452.9-162.992,441.548-140.614ZM582.162,0H634.6l74.148-172.678H650.3L608.548-64.8,565.8-172.678h-58.45ZM802.936-41.75c-18.37,0-32.064-11.69-37.408-29.058H888.774c0-65.8-32.064-105.878-86.84-105.878-52.1,0-90.18,37.408-90.18,89.846,0,53.106,39.412,90.848,92.852,90.848,25.718,0,55.444-11.022,70.808-26.72l-33.4-33.734C831.66-47.428,816.3-41.75,802.936-41.75Zm0-89.512c17.034,0,28.724,10.354,33.4,26.052H766.2C772.208-121.242,785.9-131.262,802.936-131.262Zm222.11-45.424c-21.71,0-39.746,9.018-50.434,23.38v-80.16h-56.78V0h56.78V-99.532c0-17.034,13.026-30.06,30.394-30.06s29.392,13.36,29.392,32.4V0h54.108V-109.886C1088.506-148.964,1062.12-176.686,1025.046-176.686Zm181.028,0c-26.72,0-51.436,7.682-75.484,19.706l17.7,35.4c14.7-7.682,27.054-12.692,43.42-12.692,23.714,0,37.742,13.36,37.742,31.73v2.338c-13.36-5.344-27.722-8.35-40.414-8.35-40.748,0-73.146,23.714-73.146,57.448,0,32.732,29.058,55.11,65.8,55.11,17.7,0,35.738-6.68,47.762-18.7V0H1283.9V-102.538C1283.9-148.63,1250.5-176.686,1206.074-176.686ZM1195.386-30.728c-15.03,0-25.718-8.684-25.718-22.044s12.024-23.046,27.388-23.046a95.12,95.12,0,0,1,32.4,5.678v18.37C1227.116-38.744,1212.086-30.728,1195.386-30.728Zm232.13-145.958c-21.71,0-40.08,9.018-50.768,23.714v-19.706H1320.3V0h56.446V-100.534l.334,1c0-17.034,13.026-30.06,30.394-30.06s29.392,13.36,29.392,32.4V0h54.108V-109.886C1490.976-148.964,1464.59-176.686,1427.516-176.686ZM1614.89,4.008c30.394,0,54.442-12.358,71.476-31.73L1648.958-58.45c-8.016,9.018-21.376,15.364-33.734,15.364-22.378,0-41.416-20.04-41.416-43.754,0-23.046,19.038-42.752,41.416-42.752,12.024,0,25.05,6.346,32.732,14.7l37.408-31.062c-16.7-18.7-40.414-30.728-69.806-30.728-52.1,0-96.192,41.082-96.192,90.18S1563.12,4.008,1614.89,4.008ZM1794.248-41.75c-18.37,0-32.064-11.69-37.408-29.058h123.246c0-65.8-32.064-105.878-86.84-105.878-52.1,0-90.18,37.408-90.18,89.846,0,53.106,39.412,90.848,92.852,90.848,25.718,0,55.444-11.022,70.808-26.72l-33.4-33.734C1822.972-47.428,1807.608-41.75,1794.248-41.75Zm0-89.512c17.034,0,28.724,10.354,33.4,26.052h-70.14C1763.52-121.242,1777.214-131.262,1794.248-131.262ZM1941.876,4.008c18.37,0,33.734-15.7,33.734-35.07,0-18.036-15.364-33.734-33.734-33.734-20.04,0-35.4,15.7-35.4,33.734A34.929,34.929,0,0,0,1941.876,4.008Z" transform="translate(-6.012 233.466)" fill="url(#linear-gradient)"/>
</svg>
